<svg width="56" height="56" viewBox="0 0 56 56" fill="none" xmlns="http://www.w3.org/2000/svg">
<g filter="url(#filter0_d_444_1582)">
<circle cx="28" cy="26" r="20" fill="#00BDE3"/>
</g>
<path d="M26.1192 22.9999H27.9628V20.9999C27.9628 20.7347 28.0599 20.4804 28.2328 20.2928C28.4056 20.1053 28.6401 19.9999 28.8846 19.9999C29.129 19.9999 29.3635 20.1053 29.5364 20.2928C29.7092 20.4804 29.8064 20.7347 29.8064 20.9999V22.9999H31.65C31.8944 22.9999 32.1289 23.1053 32.3018 23.2928C32.4746 23.4803 32.5718 23.7347 32.5718 23.9999C32.5718 24.2651 32.4746 24.5195 32.3018 24.707C32.1289 24.8945 31.8944 24.9999 31.65 24.9999H29.8064V26.9998C29.8064 27.2651 29.7092 27.5194 29.5364 27.7069C29.3635 27.8945 29.129 27.9998 28.8846 27.9998C28.6401 27.9998 28.4056 27.8945 28.2328 27.7069C28.0599 27.5194 27.9628 27.2651 27.9628 26.9998V24.9999H26.1192C25.8747 24.9999 25.6402 24.8945 25.4674 24.707C25.2945 24.5195 25.1974 24.2651 25.1974 23.9999C25.1974 23.7347 25.2945 23.4803 25.4674 23.2928C25.6402 23.1053 25.8747 22.9999 26.1192 22.9999ZM22.432 16H35.3371C36.0706 16 36.774 16.3161 37.2926 16.8787C37.8112 17.4413 38.1025 18.2043 38.1025 19V28.9998C38.1025 29.7955 37.8112 30.5585 37.2926 31.1211C36.774 31.6837 36.0706 31.9998 35.3371 31.9998H24.6535L21.2429 35.7097C21.1567 35.8024 21.0546 35.8757 20.9423 35.9255C20.83 35.9753 20.7097 36.0005 20.5884 35.9997C20.4675 36.0031 20.3475 35.9757 20.2381 35.9197C20.0698 35.8447 19.9257 35.7173 19.824 35.5536C19.7222 35.3899 19.6675 35.1972 19.6666 34.9997V19C19.6666 18.2043 19.9579 17.4413 20.4765 16.8787C20.9952 16.3161 21.6985 16 22.432 16ZM21.5102 32.5898L23.6211 30.2898C23.7072 30.1971 23.8094 30.1238 23.9217 30.074C24.034 30.0243 24.1543 29.999 24.2756 29.9998H35.3371C35.5816 29.9998 35.8161 29.8944 35.989 29.7069C36.1618 29.5194 36.2589 29.265 36.2589 28.9998V19C36.2589 18.7347 36.1618 18.4804 35.989 18.2929C35.8161 18.1053 35.5816 18 35.3371 18H22.432C22.1875 18 21.953 18.1053 21.7802 18.2929C21.6073 18.4804 21.5102 18.7347 21.5102 19V32.5898Z" fill="white"/>
<defs>
<filter id="filter0_d_444_1582" x="0" y="0" width="56" height="56" filterUnits="userSpaceOnUse" color-interpolation-filters="sRGB">
<feFlood flood-opacity="0" result="BackgroundImageFix"/>
<feColorMatrix in="SourceAlpha" type="matrix" values="0 0 0 0 0 0 0 0 0 0 0 0 0 0 0 0 0 0 127 0" result="hardAlpha"/>
<feOffset dy="2"/>
<feGaussianBlur stdDeviation="4"/>
<feComposite in2="hardAlpha" operator="out"/>
<feColorMatrix type="matrix" values="0 0 0 0 0 0 0 0 0 0 0 0 0 0 0 0 0 0 0.15 0"/>
<feBlend mode="normal" in2="BackgroundImageFix" result="effect1_dropShadow_444_1582"/>
<feBlend mode="normal" in="SourceGraphic" in2="effect1_dropShadow_444_1582" result="shape"/>
</filter>
</defs>
</svg>
