<svg width="13" height="14" viewBox="0 0 13 14" fill="none" xmlns="http://www.w3.org/2000/svg">
<path d="M11.7798 5.83663C11.581 5.49187 11.2991 5.20274 10.9601 4.99537V4.94095L10.9099 4.91213L4.47015 1.21895C4.47012 1.21893 4.47008 1.21891 4.47005 1.21889C4.10631 1.00887 3.69348 0.898855 3.27346 0.900009C2.85341 0.901163 2.44115 1.01347 2.07855 1.22551C1.71594 1.43756 1.41592 1.7418 1.20895 2.10732C1.00208 2.47268 0.895539 2.88627 0.900143 3.3061V10.7189C0.900143 11.3501 1.15089 11.9555 1.59723 12.4018C2.04357 12.8481 2.64893 13.0989 3.28014 13.0989L3.28031 13.0989C3.69804 13.0982 4.10826 12.9878 4.46998 12.7789C4.47004 12.7789 4.4701 12.7788 4.47017 12.7788L10.9099 9.08563L10.9102 9.08543C11.2715 8.87637 11.5713 8.576 11.7798 8.21446C11.9883 7.85291 12.0981 7.4429 12.0981 7.02554C12.0981 6.60819 11.9883 6.19818 11.7798 5.83663ZM10.1432 7.70577L3.70417 11.4519C3.70401 11.452 3.70385 11.4521 3.70369 11.4521C3.5745 11.5253 3.42859 11.5637 3.28014 11.5637C3.13163 11.5637 2.98565 11.5252 2.85642 11.4521C2.72786 11.3777 2.62111 11.2709 2.54687 11.1423C2.47256 11.0136 2.43345 10.8675 2.43348 10.7189V10.7189V3.27888V3.27886C2.43345 3.13022 2.47256 2.98418 2.54687 2.85545C2.62105 2.72694 2.72769 2.62019 2.85611 2.54589C2.98594 2.47387 3.13147 2.43485 3.2799 2.43223C3.42847 2.43557 3.57407 2.47459 3.7044 2.54602L10.1435 6.26547L10.1435 6.2655C10.2723 6.33979 10.3792 6.44668 10.4536 6.57542C10.5279 6.70416 10.5671 6.85021 10.5671 6.99888C10.5671 7.14755 10.5279 7.2936 10.4536 7.42234C10.4105 7.49698 10.3564 7.56428 10.2935 7.62214V7.61834L10.1432 7.70577Z" fill="white" stroke="white" stroke-width="0.2"/>
</svg>
