<svg width="24" height="24" viewBox="0 0 24 24" fill="none" xmlns="http://www.w3.org/2000/svg">
<path fill-rule="evenodd" clip-rule="evenodd" d="M11.5909 22.5C11.5909 22.5 20.1818 16.7727 20.1818 10.0909C20.1818 7.81246 19.2767 5.62733 17.6656 4.01622C16.0545 2.40511 13.8694 1.5 11.5909 1.5C9.31246 1.5 7.12733 2.40511 5.51622 4.01622C3.90511 5.62733 3 7.81246 3 10.0909C3 16.7727 11.5909 22.5 11.5909 22.5ZM8.1 10.25C8.1 8.23416 9.73416 6.6 11.75 6.6C13.7658 6.6 15.4 8.23416 15.4 10.25C15.4 12.2658 13.7658 13.9 11.75 13.9C9.73416 13.9 8.1 12.2658 8.1 10.25ZM11.75 5.4C9.07142 5.4 6.9 7.57142 6.9 10.25C6.9 12.9286 9.07142 15.1 11.75 15.1C14.4286 15.1 16.6 12.9286 16.6 10.25C16.6 7.57142 14.4286 5.4 11.75 5.4Z" fill="#7A7E80"/>
</svg>
