<svg width="16" height="16" viewBox="0 0 16 16" fill="none" xmlns="http://www.w3.org/2000/svg">
<g clip-path="url(#clip0_156_1789)">
<path d="M5.33301 11.3334L7.99967 14L10.6663 11.3334" stroke="black" stroke-width="1.5" stroke-linecap="round" stroke-linejoin="round"/>
<path d="M8 8V14" stroke="black" stroke-width="1.5" stroke-linecap="round" stroke-linejoin="round"/>
<path d="M13.9204 12.06C14.5 11.6524 14.9347 11.0707 15.1613 10.3994C15.3879 9.72805 15.3947 9.00197 15.1807 8.32651C14.9667 7.65104 14.543 7.06135 13.9712 6.643C13.3993 6.22464 12.709 5.9994 12.0004 5.99996H11.1604C10.9599 5.21854 10.5848 4.49279 10.0632 3.87734C9.54161 3.2619 8.88721 2.7728 8.14925 2.44686C7.41129 2.12092 6.60901 1.96664 5.80279 1.99563C4.99658 2.02463 4.20745 2.23614 3.49481 2.61424C2.78217 2.99234 2.16459 3.52719 1.68857 4.17851C1.21254 4.82983 0.890478 5.58065 0.746618 6.37446C0.602757 7.16826 0.64085 7.98435 0.85803 8.7613C1.07521 9.53825 1.46582 10.2558 2.00044 10.86" stroke="black" stroke-width="1.5" stroke-linecap="round" stroke-linejoin="round"/>
</g>
<defs>
<clipPath id="clip0_156_1789">
<rect width="16" height="16" fill="white"/>
</clipPath>
</defs>
</svg>
