<svg width="24" height="24" viewBox="0 0 24 24" fill="none" xmlns="http://www.w3.org/2000/svg">
<path d="M11.9976 8.99861C10.345 8.99861 8.99636 10.3472 8.99636 11.9998C8.99636 13.6524 10.345 15.0011 11.9976 15.0011C13.6502 15.0011 14.9988 13.6524 14.9988 11.9998C14.9988 10.3472 13.6502 8.99861 11.9976 8.99861ZM20.999 11.9998C20.999 10.757 21.0103 9.52546 20.9405 8.28489C20.8707 6.84394 20.5419 5.5651 19.4883 4.51141C18.4323 3.45547 17.1557 3.129 15.7148 3.05921C14.472 2.98941 13.2404 3.00067 11.9998 3.00067C10.757 3.00067 9.52546 2.98941 8.28489 3.05921C6.84395 3.129 5.5651 3.45772 4.51141 4.51141C3.45547 5.56736 3.129 6.84394 3.05921 8.28489C2.98941 9.52771 3.00067 10.7593 3.00067 11.9998C3.00067 13.2404 2.98941 14.4742 3.05921 15.7148C3.129 17.1557 3.45772 18.4346 4.51141 19.4883C5.56736 20.5442 6.84395 20.8707 8.28489 20.9405C9.52771 21.0103 10.7593 20.999 11.9998 20.999C13.2426 20.999 14.4742 21.0103 15.7148 20.9405C17.1557 20.8707 18.4346 20.5419 19.4883 19.4883C20.5442 18.4323 20.8707 17.1557 20.9405 15.7148C21.0125 14.4742 20.999 13.2426 20.999 11.9998ZM11.9976 16.6176C9.44215 16.6176 7.3798 14.5553 7.3798 11.9998C7.3798 9.4444 9.44215 7.38205 11.9976 7.38205C14.553 7.38205 16.6154 9.4444 16.6154 11.9998C16.6154 14.5553 14.553 16.6176 11.9976 16.6176ZM16.8045 8.27138C16.2078 8.27138 15.726 7.78957 15.726 7.19292C15.726 6.59628 16.2078 6.11447 16.8045 6.11447C17.4011 6.11447 17.8829 6.59628 17.8829 7.19292C17.8831 7.3346 17.8554 7.47492 17.8012 7.60584C17.7471 7.73677 17.6677 7.85573 17.5675 7.95591C17.4673 8.05609 17.3483 8.13552 17.2174 8.18965C17.0865 8.24379 16.9462 8.27156 16.8045 8.27138Z" fill="#161A23"/>
</svg>
