<svg width="24" height="24" viewBox="0 0 24 24" fill="none" xmlns="http://www.w3.org/2000/svg">
<path d="M7.02957 21.0006H3.29765V8.98264H7.02957V21.0006ZM5.16136 7.3433C3.96818 7.3433 3 6.35455 3 5.16136C3 4.58813 3.22771 4.03838 3.63305 3.63305C4.03838 3.22771 4.58813 3 5.16136 3C5.73459 3 6.28434 3.22771 6.68968 3.63305C7.09501 4.03838 7.32273 4.58813 7.32273 5.16136C7.32273 6.35455 6.35455 7.3433 5.16136 7.3433ZM20.9968 21.0006H17.2732V15.1504C17.2732 13.756 17.2449 11.9682 15.333 11.9682C13.3928 11.9682 13.0951 13.4828 13.0951 15.0501V21.0006H9.36708V8.98264H12.946V10.622H12.9981C13.4963 9.6776 14.7133 8.68113 16.5288 8.68113C20.3057 8.68113 21 11.1684 21 14.3989V21.0006H20.9968Z" fill="#161A23"/>
</svg>
