<svg width="40" height="40" viewBox="0 0 40 40" fill="none" xmlns="http://www.w3.org/2000/svg">
<circle cx="20" cy="20" r="20" fill="#00BDE3"/>
<path d="M15.0296 29.0006H11.2977V16.9826H15.0296V29.0006ZM13.1614 15.3433C11.9682 15.3433 11 14.3545 11 13.1614C11 12.5881 11.2277 12.0384 11.633 11.633C12.0384 11.2277 12.5881 11 13.1614 11C13.7346 11 14.2843 11.2277 14.6897 11.633C15.095 12.0384 15.3227 12.5881 15.3227 13.1614C15.3227 14.3545 14.3545 15.3433 13.1614 15.3433ZM28.9968 29.0006H25.2732V23.1504C25.2732 21.756 25.2449 19.9682 23.333 19.9682C21.3928 19.9682 21.0951 21.4828 21.0951 23.0501V29.0006H17.3671V16.9826H20.946V18.622H20.9981C21.4963 17.6776 22.7133 16.6811 24.5288 16.6811C28.3057 16.6811 29 19.1684 29 22.3989V29.0006H28.9968Z" fill="white"/>
</svg>
