<svg width="32" height="32" viewBox="0 0 32 32" fill="none" xmlns="http://www.w3.org/2000/svg">
<circle cx="16" cy="16" r="16" fill="#7A7E80"/>
<rect x="12.5908" y="12.5918" width="10.2273" height="5.45454" fill="white"/>
<path d="M21.4548 22.8187C21.8313 22.8187 22.1366 22.5135 22.1366 22.1369C22.1366 21.7603 21.8313 21.4551 21.4548 21.4551C21.0782 21.4551 20.7729 21.7603 20.7729 22.1369C20.7729 22.5135 21.0782 22.8187 21.4548 22.8187Z" fill="white" stroke="white" stroke-width="2" stroke-linecap="round" stroke-linejoin="round"/>
<path d="M13.9548 22.8187C14.3313 22.8187 14.6366 22.5135 14.6366 22.1369C14.6366 21.7603 14.3313 21.4551 13.9548 21.4551C13.5782 21.4551 13.2729 21.7603 13.2729 22.1369C13.2729 22.5135 13.5782 22.8187 13.9548 22.8187Z" fill="white" stroke="white" stroke-width="2" stroke-linecap="round" stroke-linejoin="round"/>
<path d="M8.5 8.5H11.2273L13.0545 17.6295C13.1169 17.9435 13.2877 18.2254 13.537 18.4261C13.7863 18.6268 14.0982 18.7334 14.4182 18.7273H21.0455C21.3654 18.7334 21.6774 18.6268 21.9267 18.4261C22.176 18.2254 22.3467 17.9435 22.4091 17.6295L23.5 11.9091H11.9091" stroke="white" stroke-width="2" stroke-linecap="round" stroke-linejoin="round"/>
</svg>
