<svg width="16" height="16" viewBox="0 0 16 16" fill="none" xmlns="http://www.w3.org/2000/svg">
<path d="M13.4545 6.72727C13.4545 11.1818 7.72727 15 7.72727 15C7.72727 15 2 11.1818 2 6.72727C2 5.20831 2.60341 3.75155 3.67748 2.67748C4.75155 1.60341 6.20831 1 7.72727 1C9.24624 1 10.703 1.60341 11.7771 2.67748C12.8511 3.75155 13.4545 5.20831 13.4545 6.72727Z" stroke="#7A7E80" stroke-width="1.2" stroke-linecap="round" stroke-linejoin="round"/>
<path d="M7.83333 9.66667C9.39814 9.66667 10.6667 8.39814 10.6667 6.83333C10.6667 5.26853 9.39814 4 7.83333 4C6.26853 4 5 5.26853 5 6.83333C5 8.39814 6.26853 9.66667 7.83333 9.66667Z" stroke="#7A7E80" stroke-width="1.2" stroke-linecap="round" stroke-linejoin="round"/>
</svg>
