<svg width="32" height="32" viewBox="0 0 32 32" fill="none" xmlns="http://www.w3.org/2000/svg">
<circle cx="16" cy="16" r="16" fill="#00BDE3"/>
<rect x="12.5908" y="12.5909" width="10.2273" height="5.45454" fill="white"/>
<path d="M21.4545 22.8182C21.8311 22.8182 22.1363 22.5129 22.1363 22.1363C22.1363 21.7598 21.8311 21.4545 21.4545 21.4545C21.078 21.4545 20.7727 21.7598 20.7727 22.1363C20.7727 22.5129 21.078 22.8182 21.4545 22.8182Z" fill="white" stroke="white" stroke-width="2" stroke-linecap="round" stroke-linejoin="round"/>
<path d="M13.9545 22.8182C14.3311 22.8182 14.6363 22.5129 14.6363 22.1363C14.6363 21.7598 14.3311 21.4545 13.9545 21.4545C13.578 21.4545 13.2727 21.7598 13.2727 22.1363C13.2727 22.5129 13.578 22.8182 13.9545 22.8182Z" fill="white" stroke="white" stroke-width="2" stroke-linecap="round" stroke-linejoin="round"/>
<path d="M8.5 8.5H11.2273L13.0545 17.6295C13.1169 17.9435 13.2877 18.2254 13.537 18.4261C13.7863 18.6268 14.0982 18.7334 14.4182 18.7273H21.0455C21.3654 18.7334 21.6774 18.6268 21.9267 18.4261C22.176 18.2254 22.3467 17.9435 22.4091 17.6295L23.5 11.9091H11.9091" stroke="white" stroke-width="2" stroke-linecap="round" stroke-linejoin="round"/>
</svg>
