<svg width="39" height="45" viewBox="0 0 39 45" fill="none" xmlns="http://www.w3.org/2000/svg">
<path d="M3.82422 39.8594H6.31641V40.0586C6.31641 40.5117 6.26302 40.9128 6.15625 41.2617C6.05208 41.5846 5.8763 41.8867 5.62891 42.168C5.06901 42.7982 4.35677 43.1133 3.49219 43.1133C2.64844 43.1133 1.92578 42.8086 1.32422 42.1992C0.722656 41.5872 0.421875 40.8529 0.421875 39.9961C0.421875 39.1211 0.727865 38.3789 1.33984 37.7695C1.95182 37.1576 2.69661 36.8516 3.57422 36.8516C4.04557 36.8516 4.48568 36.9479 4.89453 37.1406C5.28516 37.3333 5.66927 37.6458 6.04688 38.0781L5.39844 38.6992C4.90365 38.0404 4.30078 37.7109 3.58984 37.7109C2.95182 37.7109 2.41667 37.931 1.98438 38.3711C1.55208 38.8034 1.33594 39.3451 1.33594 39.9961C1.33594 40.668 1.57682 41.2214 2.05859 41.6562C2.50911 42.0599 2.9974 42.2617 3.52344 42.2617C3.97135 42.2617 4.3737 42.1107 4.73047 41.8086C5.08724 41.5039 5.28646 41.1393 5.32812 40.7148H3.82422V39.8594ZM9.50781 40.4297L11.375 43H10.2617L8.53906 40.5312H8.375V43H7.46484V36.9688H8.53125C9.32812 36.9688 9.90365 37.1185 10.2578 37.418C10.6484 37.7513 10.8438 38.1914 10.8438 38.7383C10.8438 39.1654 10.7214 39.5326 10.4766 39.8398C10.2318 40.1471 9.90885 40.3438 9.50781 40.4297ZM8.375 39.7383H8.66406C9.52604 39.7383 9.95703 39.4089 9.95703 38.75C9.95703 38.1328 9.53776 37.8242 8.69922 37.8242H8.375V39.7383ZM11.8438 39.957C11.8438 39.1081 12.1549 38.3789 12.7773 37.7695C13.3971 37.1602 14.1419 36.8555 15.0117 36.8555C15.8711 36.8555 16.6081 37.1628 17.2227 37.7773C17.8398 38.3919 18.1484 39.1302 18.1484 39.9922C18.1484 40.8594 17.8385 41.5951 17.2188 42.1992C16.5964 42.806 15.8451 43.1094 14.9648 43.1094C14.1862 43.1094 13.487 42.8398 12.8672 42.3008C12.1849 41.7044 11.8438 40.9232 11.8438 39.957ZM12.7617 39.9688C12.7617 40.6354 12.9857 41.1836 13.4336 41.6133C13.8789 42.043 14.3932 42.2578 14.9766 42.2578C15.6094 42.2578 16.1432 42.0391 16.5781 41.6016C17.013 41.1589 17.2305 40.6198 17.2305 39.9844C17.2305 39.3411 17.0156 38.8021 16.5859 38.3672C16.1589 37.9297 15.6302 37.7109 15 37.7109C14.3724 37.7109 13.8424 37.9297 13.4102 38.3672C12.9779 38.7995 12.7617 39.3333 12.7617 39.9688ZM23.75 37.293V38.3711C23.224 37.931 22.6797 37.7109 22.1172 37.7109C21.4974 37.7109 20.9753 37.9336 20.5508 38.3789C20.1237 38.8216 19.9102 39.3633 19.9102 40.0039C19.9102 40.6367 20.1237 41.1706 20.5508 41.6055C20.9779 42.0404 21.5013 42.2578 22.1211 42.2578C22.4414 42.2578 22.7135 42.2057 22.9375 42.1016C23.0625 42.0495 23.1914 41.9792 23.3242 41.8906C23.4596 41.8021 23.6016 41.6953 23.75 41.5703V42.668C23.2292 42.9622 22.6823 43.1094 22.1094 43.1094C21.2474 43.1094 20.5117 42.8086 19.9023 42.207C19.2956 41.6003 18.9922 40.8685 18.9922 40.0117C18.9922 39.2435 19.2461 38.5586 19.7539 37.957C20.3789 37.2201 21.1875 36.8516 22.1797 36.8516C22.7214 36.8516 23.2448 36.9987 23.75 37.293ZM28.2305 37.8242H25.8125V39.2734H28.1602V40.1289H25.8125V42.1445H28.2305V43H24.9023V36.9688H28.2305V37.8242ZM31.4688 40.4297L33.3359 43H32.2227L30.5 40.5312H30.3359V43H29.4258V36.9688H30.4922C31.2891 36.9688 31.8646 37.1185 32.2188 37.418C32.6094 37.7513 32.8047 38.1914 32.8047 38.7383C32.8047 39.1654 32.6823 39.5326 32.4375 39.8398C32.1927 40.1471 31.8698 40.3438 31.4688 40.4297ZM30.3359 39.7383H30.625C31.487 39.7383 31.918 39.4089 31.918 38.75C31.918 38.1328 31.4987 37.8242 30.6602 37.8242H30.3359V39.7383ZM35.1992 40.3945L33.2305 36.9688H34.2773L35.6562 39.3789L37.0391 36.9688H38.0859L36.1094 40.3945V43H35.1992V40.3945Z" fill="#00BDE3"/>
<circle cx="19" cy="16" r="16" fill="#00BDE3"/>
<rect x="15.5908" y="12.5909" width="10.2273" height="5.45454" fill="white"/>
<path d="M24.4545 22.8182C24.8311 22.8182 25.1363 22.5129 25.1363 22.1363C25.1363 21.7598 24.8311 21.4545 24.4545 21.4545C24.078 21.4545 23.7727 21.7598 23.7727 22.1363C23.7727 22.5129 24.078 22.8182 24.4545 22.8182Z" fill="white" stroke="white" stroke-width="2" stroke-linecap="round" stroke-linejoin="round"/>
<path d="M16.9545 22.8182C17.3311 22.8182 17.6363 22.5129 17.6363 22.1363C17.6363 21.7598 17.3311 21.4545 16.9545 21.4545C16.578 21.4545 16.2727 21.7598 16.2727 22.1363C16.2727 22.5129 16.578 22.8182 16.9545 22.8182Z" fill="white" stroke="white" stroke-width="2" stroke-linecap="round" stroke-linejoin="round"/>
<path d="M11.5 8.5H14.2273L16.0545 17.6295C16.1169 17.9435 16.2877 18.2254 16.537 18.4261C16.7863 18.6268 17.0982 18.7334 17.4182 18.7273H24.0455C24.3654 18.7334 24.6774 18.6268 24.9267 18.4261C25.176 18.2254 25.3467 17.9435 25.4091 17.6295L26.5 11.9091H14.9091" stroke="white" stroke-width="2" stroke-linecap="round" stroke-linejoin="round"/>
</svg>
