<svg width="40" height="40" viewBox="0 0 40 40" fill="none" xmlns="http://www.w3.org/2000/svg">
<circle cx="20" cy="20" r="20" fill="#00BDE3"/>
<path d="M29 14.7357C28.3381 15.029 27.627 15.2272 26.8794 15.3168C27.6508 14.8553 28.2278 14.1289 28.503 13.2731C27.7783 13.7036 26.9851 14.0066 26.158 14.1689C25.6018 13.575 24.8651 13.1814 24.0623 13.0491C23.2594 12.9169 22.4354 13.0534 21.7181 13.4374C21.0007 13.8215 20.4303 14.4316 20.0953 15.1731C19.7602 15.9146 19.6794 16.7459 19.8652 17.5381C18.3968 17.4643 16.9603 17.0827 15.649 16.4178C14.3376 15.753 13.1807 14.8199 12.2533 13.679C11.9362 14.226 11.7539 14.8602 11.7539 15.5356C11.7535 16.1436 11.9033 16.7423 12.1898 17.2786C12.4763 17.8149 12.8908 18.2722 13.3965 18.6099C12.81 18.5912 12.2366 18.4327 11.7238 18.1477V18.1952C11.7237 19.048 12.0187 19.8746 12.5587 20.5346C13.0987 21.1947 13.8504 21.6476 14.6863 21.8165C14.1423 21.9637 13.5719 21.9854 13.0183 21.8799C13.2542 22.6137 13.7136 23.2553 14.3322 23.7151C14.9508 24.1748 15.6977 24.4295 16.4683 24.4436C15.1602 25.4706 13.5446 26.0276 11.8815 26.0252C11.5869 26.0252 11.2926 26.008 11 25.9736C12.6881 27.059 14.6532 27.6351 16.6602 27.6328C23.454 27.6328 27.168 22.006 27.168 17.1258C27.168 16.9673 27.164 16.8072 27.1569 16.6486C27.8793 16.1262 28.5029 15.4792 28.9984 14.7381L29 14.7357Z" fill="white"/>
</svg>
