<svg width="72" height="89" viewBox="0 0 72 89" fill="none" xmlns="http://www.w3.org/2000/svg">
<g filter="url(#filter0_d_1400_5252)">
<rect x="16" y="36" width="46" height="46" rx="16" fill="#E3E5E5"/>
<g clip-path="url(#clip0_1400_5252)">
<path d="M35.0313 52.6739H35.0313L50.5235 52.6741C50.8434 52.6741 51.1001 52.9305 51.1001 53.2507C51.1001 53.5706 50.8436 53.8273 50.5235 53.8273H35.1313V53.8273H35.0313C34.7112 53.8273 34.4545 53.5707 34.4547 53.2505C34.4547 53.2505 34.4547 53.2505 34.4547 53.2504M35.0313 52.6739V52.7739C34.7664 52.7739 34.5547 52.9858 34.5547 53.2505L34.4547 53.2504M35.0313 52.6739C34.7111 52.6739 34.4547 52.9306 34.4547 53.2504M35.0313 52.6739L34.4547 53.2504M35.0313 53.7273H35.1313H35.0313Z" fill="#7A7E80" stroke="#7A7E80" stroke-width="0.2"/>
<path d="M50.4969 58.9508H35.0313C34.7111 58.9508 34.4547 59.2075 34.4547 59.5274C34.4547 59.8475 34.7114 60.104 35.0313 60.104H50.5235C50.8436 60.104 51.1001 59.8473 51.1001 59.5274C51.1001 59.2006 50.8098 58.9509 50.497 58.9508C50.497 58.9508 50.4969 58.9508 50.4969 58.9508Z" fill="#7A7E80" stroke="#7A7E80" stroke-width="0.2"/>
<path d="M50.4969 65.2008H35.0313C34.7111 65.2008 34.4547 65.4575 34.4547 65.7774C34.4547 66.0975 34.7114 66.354 35.0313 66.354H50.5235C50.8436 66.354 51.1001 66.0973 51.1001 65.7774C51.1001 65.4506 50.8098 65.2009 50.497 65.2008C50.497 65.2008 50.4969 65.2008 50.4969 65.2008Z" fill="#7A7E80" stroke="#7A7E80" stroke-width="0.2"/>
<path d="M31.5881 57.0376H27.5628C27.2979 57.0376 27.0862 57.2495 27.0862 57.5142V61.5396C27.0862 61.8045 27.2981 62.0162 27.5628 62.0162H31.5881C31.853 62.0162 32.0647 61.8043 32.0647 61.5396V57.5142C32.0383 57.2495 31.8264 57.0376 31.5881 57.0376Z" fill="#7A7E80"/>
<path d="M27.457 55.5284H31.5882C31.7471 55.5284 31.9059 55.449 31.9853 55.2901C32.0648 55.1312 32.0648 54.9724 31.9853 54.8135L29.9197 51.2383C29.8403 51.1058 29.6814 51 29.5226 51C29.3637 51 29.2048 51.0794 29.1254 51.2383L27.0596 54.8399C26.9801 54.9724 26.9801 55.1576 27.0596 55.3165C27.139 55.4755 27.2979 55.5284 27.4569 55.5284L27.457 55.5284Z" fill="#7A7E80"/>
<path d="M29.6551 63.1025C28.1985 63.1025 27.0068 64.2942 27.0068 65.7508C27.0068 67.2074 28.1985 68.399 29.6551 68.399C31.1117 68.399 32.3033 67.2074 32.3033 65.7508C32.3033 64.2944 31.1117 63.1025 29.6551 63.1025Z" fill="#7A7E80"/>
</g>
<rect x="16.5" y="36.5" width="45" height="45" rx="15.5" stroke="#E3E5E5"/>
</g>
<defs>
<filter id="filter0_d_1400_5252" x="-24" y="0" width="126" height="126" filterUnits="userSpaceOnUse" color-interpolation-filters="sRGB">
<feFlood flood-opacity="0" result="BackgroundImageFix"/>
<feColorMatrix in="SourceAlpha" type="matrix" values="0 0 0 0 0 0 0 0 0 0 0 0 0 0 0 0 0 0 127 0" result="hardAlpha"/>
<feOffset dy="4"/>
<feGaussianBlur stdDeviation="20"/>
<feComposite in2="hardAlpha" operator="out"/>
<feColorMatrix type="matrix" values="0 0 0 0 0 0 0 0 0 0 0 0 0 0 0 0 0 0 0.04 0"/>
<feBlend mode="normal" in2="BackgroundImageFix" result="effect1_dropShadow_1400_5252"/>
<feBlend mode="normal" in="SourceGraphic" in2="effect1_dropShadow_1400_5252" result="shape"/>
</filter>
<clipPath id="clip0_1400_5252">
<rect width="24" height="24" fill="white" transform="translate(27 48)"/>
</clipPath>
</defs>
</svg>
