<svg width="18" height="24" viewBox="0 0 18 24" fill="none" xmlns="http://www.w3.org/2000/svg">
<path d="M18 8.93023C18 11.5975 14.9531 15.6279 14.9531 15.6279L9.81497 22.8539C9.4163 23.4145 8.5837 23.4145 8.18503 22.8539L3.0469 15.6279C3.0469 15.6279 0 11.5975 0 8.93023C0 3.9982 4.02944 0 9 0C13.9706 0 18 3.9982 18 8.93023Z" fill="#F0933A"/>
<g clip-path="url(#clip0_442_2618)">
<rect x="6.52002" y="7.02734" width="5.75284" height="3.0444" fill="white"/>
<path d="M11.5056 12.7357C11.7174 12.7357 11.8891 12.5653 11.8891 12.3552C11.8891 12.145 11.7174 11.9746 11.5056 11.9746C11.2938 11.9746 11.1221 12.145 11.1221 12.3552C11.1221 12.5653 11.2938 12.7357 11.5056 12.7357Z" fill="white" stroke="white" stroke-width="2" stroke-linecap="round" stroke-linejoin="round"/>
<path d="M7.28684 12.7357C7.49866 12.7357 7.67037 12.5653 7.67037 12.3552C7.67037 12.145 7.49866 11.9746 7.28684 11.9746C7.07503 11.9746 6.90332 12.145 6.90332 12.3552C6.90332 12.5653 7.07503 12.7357 7.28684 12.7357Z" fill="white" stroke="white" stroke-width="2" stroke-linecap="round" stroke-linejoin="round"/>
<path d="M4.21875 4.74414H5.75284L6.78068 9.8397C6.81575 10.0149 6.91181 10.1723 7.05204 10.2843C7.19227 10.3963 7.36774 10.4558 7.54773 10.4524H11.2756C11.4556 10.4558 11.631 10.3963 11.7713 10.2843C11.9115 10.1723 12.0075 10.0149 12.0426 9.8397L12.6563 6.64689H6.13636" stroke="white" stroke-width="2" stroke-linecap="round" stroke-linejoin="round"/>
</g>
<defs>
<clipPath id="clip0_442_2618">
<rect width="11.25" height="11.1628" fill="white" transform="translate(2.8125 3.34961)"/>
</clipPath>
</defs>
</svg>
