<svg width="32" height="43" viewBox="0 0 32 43" fill="none" xmlns="http://www.w3.org/2000/svg">
<path d="M32 16C32 20.7788 26.5833 28 26.5833 28L16.8171 41.8419C16.4187 42.4066 15.5813 42.4066 15.1829 41.8419L5.4167 28C5.4167 28 0 20.7788 0 16C0 7.16344 7.16344 0 16 0C24.8366 0 32 7.16344 32 16Z" fill="#F0933A"/>
<rect x="11.5908" y="12.5918" width="10.2273" height="5.45454" fill="white"/>
<path d="M20.4548 22.8187C20.8313 22.8187 21.1366 22.5135 21.1366 22.1369C21.1366 21.7603 20.8313 21.4551 20.4548 21.4551C20.0782 21.4551 19.7729 21.7603 19.7729 22.1369C19.7729 22.5135 20.0782 22.8187 20.4548 22.8187Z" fill="white" stroke="white" stroke-width="2" stroke-linecap="round" stroke-linejoin="round"/>
<path d="M12.9548 22.8187C13.3313 22.8187 13.6366 22.5135 13.6366 22.1369C13.6366 21.7603 13.3313 21.4551 12.9548 21.4551C12.5782 21.4551 12.2729 21.7603 12.2729 22.1369C12.2729 22.5135 12.5782 22.8187 12.9548 22.8187Z" fill="white" stroke="white" stroke-width="2" stroke-linecap="round" stroke-linejoin="round"/>
<path d="M7.5 8.5H10.2273L12.0545 17.6295C12.1169 17.9435 12.2877 18.2254 12.537 18.4261C12.7863 18.6268 13.0982 18.7334 13.4182 18.7273H20.0455C20.3654 18.7334 20.6774 18.6268 20.9267 18.4261C21.176 18.2254 21.3467 17.9435 21.4091 17.6295L22.5 11.9091H10.9091" stroke="white" stroke-width="2" stroke-linecap="round" stroke-linejoin="round"/>
</svg>
