<svg width="32" height="43" viewBox="0 0 32 43" fill="none" xmlns="http://www.w3.org/2000/svg">
<path d="M32 16C32 20.7788 26.5833 28 26.5833 28L16.8171 41.8419C16.4187 42.4066 15.5813 42.4066 15.1829 41.8419L5.4167 28C5.4167 28 0 20.7788 0 16C0 7.16344 7.16344 0 16 0C24.8366 0 32 7.16344 32 16Z" fill="#77BD43"/>
<rect x="11.5908" y="12.5909" width="10.2273" height="5.45454" fill="white"/>
<path d="M20.4545 22.8182C20.8311 22.8182 21.1363 22.5129 21.1363 22.1363C21.1363 21.7598 20.8311 21.4545 20.4545 21.4545C20.078 21.4545 19.7727 21.7598 19.7727 22.1363C19.7727 22.5129 20.078 22.8182 20.4545 22.8182Z" fill="white" stroke="white" stroke-width="2" stroke-linecap="round" stroke-linejoin="round"/>
<path d="M12.9545 22.8182C13.3311 22.8182 13.6363 22.5129 13.6363 22.1363C13.6363 21.7598 13.3311 21.4545 12.9545 21.4545C12.578 21.4545 12.2727 21.7598 12.2727 22.1363C12.2727 22.5129 12.578 22.8182 12.9545 22.8182Z" fill="white" stroke="white" stroke-width="2" stroke-linecap="round" stroke-linejoin="round"/>
<path d="M7.5 8.5H10.2273L12.0545 17.6295C12.1169 17.9435 12.2877 18.2254 12.537 18.4261C12.7863 18.6268 13.0982 18.7334 13.4182 18.7273H20.0455C20.3654 18.7334 20.6774 18.6268 20.9267 18.4261C21.176 18.2254 21.3467 17.9435 21.4091 17.6295L22.5 11.9091H10.9091" stroke="white" stroke-width="2" stroke-linecap="round" stroke-linejoin="round"/>
</svg>
